<?xml version="1.0" standalone="no"?>
<!DOCTYPE svg PUBLIC "-//W3C//DTD SVG 20010904//EN"
 "http://www.w3.org/TR/2001/REC-SVG-20010904/DTD/svg10.dtd">
<svg version="1.0" xmlns="http://www.w3.org/2000/svg"
 width="128.000000pt" height="128.000000pt" viewBox="0 0 128.000000 128.000000"
 preserveAspectRatio="xMidYMid meet">
<metadata>
Created by potrace 1.14, written by Peter Selinger 2001-2017
</metadata>
<g transform="translate(0.000000,128.000000) scale(0.100000,-0.100000)"
fill="#000000" stroke="none">
<path d="M625 1272 c-11 -2 -27 -6 -35 -9 -19 -8 -27 -9 -75 -17 -68 -11 -160
-87 -199 -164 -44 -88 -78 -191 -78 -239 -1 -27 -1 -109 0 -183 0 -74 0 -153
-1 -175 -2 -60 10 -131 27 -157 8 -13 16 -40 19 -61 7 -53 27 -79 114 -143
112 -83 150 -97 242 -92 98 6 150 29 261 118 95 76 90 66 130 220 7 25 12 97
11 160 -3 192 -10 364 -16 390 -4 14 -9 53 -12 88 -5 49 -11 67 -30 85 -14 12
-35 33 -46 46 -47 53 -69 69 -134 94 -74 29 -146 45 -178 39z"/>
</g>
</svg>
