<?xml version="1.0" standalone="no"?>
<!DOCTYPE svg PUBLIC "-//W3C//DTD SVG 20010904//EN"
 "http://www.w3.org/TR/2001/REC-SVG-20010904/DTD/svg10.dtd">
<svg version="1.0" xmlns="http://www.w3.org/2000/svg"
 width="1024.000000pt" height="1024.000000pt" viewBox="0 0 1024.000000 1024.000000"
 preserveAspectRatio="xMidYMid meet">
<metadata>
Created by potrace 1.14, written by Peter Selinger 2001-2017
</metadata>
<g transform="translate(0.000000,1024.000000) scale(0.100000,-0.100000)"
fill="#000000" stroke="none">
<path d="M5029 10223 c-13 -16 -12 -17 4 -4 16 13 21 21 13 21 -2 0 -10 -8
-17 -17z"/>
<path d="M5269 10223 c-13 -16 -12 -17 4 -4 9 7 17 15 17 17 0 8 -8 3 -21 -13z"/>
<path d="M5100 10226 c0 -2 8 -10 18 -17 15 -13 16 -12 3 4 -13 16 -21 21 -21
13z"/>
<path d="M5159 10213 c-13 -16 -12 -17 4 -4 9 7 17 15 17 17 0 8 -8 3 -21 -13z"/>
<path d="M5347 10219 c7 -7 15 -10 18 -7 3 3 -2 9 -12 12 -14 6 -15 5 -6 -5z"/>
<path d="M4973 10205 c0 -8 3 -13 5 -10 3 3 12 -1 21 -7 10 -8 9 -4 -3 10 -23
26 -23 26 -23 7z"/>
<path d="M5049 10203 c-13 -16 -12 -17 4 -4 9 7 17 15 17 17 0 8 -8 3 -21 -13z"/>
<path d="M5213 10205 c0 -8 3 -13 5 -10 3 3 12 -1 21 -7 10 -8 9 -4 -3 10 -23
26 -23 26 -23 7z"/>
<path d="M5289 10203 c-13 -16 -12 -17 4 -4 9 7 17 15 17 17 0 8 -8 3 -21 -13z"/>
<path d="M5080 10206 c0 -2 8 -10 18 -17 15 -13 16 -12 3 4 -13 16 -21 21 -21
13z"/>
<path d="M5320 10206 c0 -2 8 -10 18 -17 15 -13 16 -12 3 4 -13 16 -21 21 -21
13z"/>
<path d="M5150 10176 c7 -7 13 -7 20 0 6 6 3 10 -10 10 -13 0 -16 -4 -10 -10z"/>
<path d="M4974 10172 c6 -11 -1 -13 -30 -12 -22 1 -71 2 -111 1 -76 -1 -83 -8
-53 -47 14 -18 14 -18 -7 0 -12 10 -21 23 -20 29 1 6 -6 13 -15 15 -10 2 -18
-2 -19 -10 0 -7 -2 -23 -3 -35 -2 -13 2 -24 8 -25 6 -1 -18 -4 -54 -7 -40 -4
-64 -10 -63 -17 1 -7 -8 -20 -20 -30 -21 -18 -21 -18 -7 0 29 38 22 46 -38 43
-48 -3 -57 -6 -57 -23 0 -10 -3 -24 -7 -30 -4 -6 -1 -11 7 -11 8 0 11 5 8 10
-4 6 -1 7 7 2 9 -6 11 -4 5 6 -5 8 2 5 16 -6 14 -12 19 -14 11 -4 -10 13 -9
19 4 30 9 7 23 14 31 15 11 2 11 -2 -4 -18 -10 -11 -17 -22 -15 -24 9 -15 -6
-20 -65 -21 -195 -3 -204 -4 -191 -22 12 -15 11 -15 -7 0 -26 20 -82 24 -102
7 -9 -7 -14 -8 -10 -2 10 16 -170 11 -186 -5 -9 -10 -8 -11 5 -6 13 5 16 2 13
-14 -2 -11 1 -24 7 -27 7 -5 8 -2 3 6 -6 9 -4 11 5 5 8 -5 11 -4 6 3 -8 14 21
9 36 -6 7 -7 16 -12 22 -12 5 0 1 7 -10 16 -10 8 -13 13 -6 9 7 -4 12 -3 11 2
-4 22 3 24 21 8 20 -18 29 -8 10 11 -6 6 0 10 19 9 20 0 28 -5 26 -15 -1 -8 3
-19 9 -23 7 -6 6 -7 -4 -4 -8 2 -14 10 -13 16 2 6 -2 11 -7 11 -13 0 -13 -23
0 -36 7 -7 6 -11 -4 -11 -8 0 -13 3 -11 7 2 3 -5 11 -16 18 -20 13 -26 3 -9
-14 7 -7 -21 -10 -83 -11 -174 -1 -198 -3 -192 -13 3 -5 1 -10 -4 -10 -6 0
-11 4 -11 8 0 4 -11 8 -25 8 -25 0 -42 -21 -25 -31 6 -4 10 -11 10 -16 0 -6
-6 -7 -12 -3 -10 6 -10 5 0 -8 11 -14 5 -15 -53 -16 -40 0 -72 -6 -82 -14 -14
-11 -16 -11 -9 1 6 9 5 12 -4 9 -14 -4 -22 -48 -10 -48 4 0 7 -7 7 -15 0 -11
-9 -14 -34 -11 -43 4 -61 -13 -58 -54 2 -29 1 -31 -23 -27 -35 7 -52 -1 -52
-25 0 -10 -4 -16 -10 -13 -6 3 -7 -1 -4 -9 3 -9 10 -13 15 -10 5 3 6 -1 4 -9
-4 -8 -21 -13 -48 -13 -42 0 -42 0 -41 -34 1 -41 -7 -48 -47 -45 -16 1 -29 0
-29 -4 0 -3 -17 -6 -37 -5 -46 3 -58 -3 -42 -22 6 -8 8 -14 3 -14 -4 0 0 -6
11 -13 14 -11 15 -16 5 -22 -9 -5 -11 -4 -6 3 10 16 -2 15 -19 -1 -7 -7 -27
-12 -44 -11 -21 1 -31 -2 -28 -9 2 -7 0 -22 -4 -35 -7 -17 -6 -21 3 -16 7 5 8
3 3 -5 -4 -8 -22 -11 -46 -9 -35 3 -39 1 -37 -17 2 -12 -2 -19 -10 -17 -10 2
-10 -2 -2 -17 14 -28 14 -28 -30 -27 -22 1 -40 -2 -40 -7 0 -5 -8 -6 -17 -3
-17 6 -17 5 0 -8 18 -14 24 -32 7 -21 -5 3 -10 1 -10 -4 0 -6 4 -11 8 -11 5 0
9 -7 9 -15 0 -20 -7 -19 -23 3 -13 16 -14 16 -8 0 5 -14 1 -16 -17 -13 -23 5
-59 -19 -59 -39 0 -6 7 -2 15 9 14 18 15 17 12 -15 -5 -38 -27 -51 -53 -29 -8
6 -17 9 -21 5 -3 -3 0 -6 8 -6 10 -1 9 -4 -4 -11 -9 -5 -23 -7 -30 -4 -6 4 -4
0 6 -8 18 -15 24 -32 7 -22 -5 3 -10 1 -10 -4 0 -6 4 -11 8 -11 5 0 9 -7 9
-15 0 -20 -7 -19 -23 3 -13 15 -13 15 -8 0 5 -14 1 -16 -20 -12 -19 3 -26 0
-26 -11 0 -10 -5 -13 -12 -9 -7 5 -8 3 -2 -7 5 -8 10 -25 12 -38 3 -22 1 -23
-14 -10 -12 9 -15 9 -10 2 5 -9 0 -13 -14 -13 -14 0 -19 4 -14 13 4 6 -1 5
-10 -3 -11 -11 -17 -37 -18 -92 -2 -42 -5 -74 -7 -72 -2 2 -10 -1 -17 -7 -8
-7 -14 -7 -19 1 -3 6 -12 7 -18 4 -7 -4 -2 4 11 18 12 13 19 28 15 33 -5 4 -2
5 6 0 10 -6 12 -4 6 5 -6 9 -4 11 5 5 8 -5 11 -4 6 3 -3 6 -15 9 -26 7 -11 -2
-20 1 -20 7 0 6 -3 8 -7 5 -7 -7 -10 -50 -14 -170 -1 -44 -6 -72 -11 -65 -6
10 -8 10 -8 1 0 -7 -5 -13 -11 -13 -5 0 -7 5 -4 10 3 6 1 10 -4 10 -6 0 -11
-8 -11 -17 0 -14 -2 -15 -9 -4 -13 20 -23 -3 -20 -47 3 -32 1 -37 -16 -35 -19
1 -19 1 -2 -11 18 -14 24 -32 7 -21 -5 3 -10 1 -10 -4 0 -6 4 -11 8 -11 5 0 9
-7 9 -15 0 -20 -7 -19 -23 3 -12 15 -12 15 -7 -5 6 -25 -6 -30 -25 -11 -17 17
-27 1 -11 -19 9 -11 10 -14 2 -9 -13 7 -14 -6 -13 -108 0 -16 -7 -37 -16 -47
-16 -18 -16 -20 1 -39 27 -30 12 -24 -22 9 -24 22 -28 32 -19 41 8 10 7 11 -4
8 -11 -4 -15 -22 -17 -74 -1 -38 -2 -75 -2 -83 -1 -8 -8 -11 -18 -7 -17 6 -17
5 0 -8 18 -14 24 -32 7 -21 -6 3 -10 1 -10 -4 0 -6 4 -11 8 -11 5 0 9 -7 9
-15 0 -20 -7 -19 -23 3 -13 15 -13 15 -8 0 5 -14 1 -16 -20 -12 -28 5 -27 12
-28 -138 -1 -34 -4 -45 -14 -41 -8 3 -12 8 -9 12 3 6 -10 7 -46 2 -8 -1 -4
-55 6 -71 5 -9 4 -11 -3 -6 -12 7 -12 1 -15 -126 -1 -20 -4 -35 -8 -32 -4 2
-11 0 -14 -6 -5 -7 -11 -8 -19 -1 -27 23 -36 -5 -38 -122 -2 -85 -6 -116 -15
-113 -6 3 -14 0 -17 -7 -3 -9 -5 -8 -5 1 -1 7 -5 11 -10 7 -5 -3 -13 0 -17 6
-5 8 -3 9 6 4 9 -6 11 -4 5 5 -6 9 -4 11 5 5 9 -6 11 -4 5 6 -5 8 2 5 16 -6
l24 -20 -18 22 c-11 13 -14 23 -8 27 6 4 7 14 4 22 -4 11 -8 12 -13 4 -9 -15
-21 -15 -30 -1 -3 7 -7 -10 -7 -36 0 -26 -2 -84 -4 -129 l-3 -80 -35 0 -35 1
-3 -57 c-3 -60 5 -67 43 -38 18 14 18 14 0 -7 -10 -12 -23 -21 -30 -20 -12 2
-13 -9 -16 -181 -2 -95 -4 -111 -16 -101 -12 10 -13 9 -8 -5 5 -12 2 -15 -10
-10 -9 3 -14 9 -11 13 2 4 -2 8 -10 8 -8 0 -15 -3 -16 -6 -7 -41 -4 -59 8 -54
9 4 11 0 7 -11 -3 -9 -9 -14 -13 -12 -3 2 -7 -27 -8 -65 -1 -48 2 -67 9 -63 7
5 8 2 2 -7 -8 -14 -14 -262 -5 -253 2 2 10 -1 18 -7 7 -6 13 -8 13 -4 0 4 8 1
17 -6 11 -10 14 -10 9 -1 -4 6 -2 12 4 12 7 0 10 -26 9 -77 -1 -43 -1 -364 0
-713 1 -584 3 -636 19 -654 16 -20 16 -20 -1 -7 -16 13 -18 12 -15 -10 2 -13
7 -30 12 -38 6 -10 5 -12 -3 -7 -17 11 -10 -36 9 -60 14 -18 14 -18 -3 -5 -17
13 -18 12 -15 -10 2 -13 7 -30 12 -38 6 -10 5 -12 -3 -7 -17 11 -10 -36 9 -60
14 -18 14 -18 -3 -5 -17 13 -18 12 -15 -10 2 -13 7 -30 12 -38 6 -10 5 -12 -3
-7 -17 11 -10 -36 9 -60 14 -18 14 -18 -3 -5 -17 13 -18 12 -15 -10 2 -13 7
-30 12 -38 6 -10 5 -12 -3 -7 -14 9 -11 -30 3 -53 6 -10 5 -12 -2 -7 -9 5 -12
-35 -13 -156 -1 -173 -4 -246 -11 -253 -2 -2 -9 5 -16 15 -9 15 -9 19 1 16 6
-1 9 -1 5 1 -5 3 -3 13 2 23 8 15 6 17 -13 13 -21 -5 -21 -5 -3 9 16 13 16 15
2 15 -9 0 -17 -4 -17 -9 -1 -4 -3 -12 -4 -18 -1 -5 -3 -13 -4 -17 -1 -5 -5 -2
-9 4 -5 8 -8 -1 -9 -22 -1 -20 4 -35 10 -35 9 0 9 -2 1 -8 -15 -9 -15 -132 0
-151 8 -11 8 -13 0 -8 -8 5 -12 -6 -11 -32 1 -25 5 -38 11 -34 6 3 5 0 -1 -8
-7 -7 -13 -23 -13 -34 0 -19 5 -22 40 -20 22 1 38 -1 34 -4 -3 -3 -20 -6 -37
-6 -28 0 -32 -4 -35 -29 -3 -21 0 -26 10 -21 10 6 11 5 0 -6 -15 -16 -16 -33
0 -23 7 5 8 3 3 -7 -5 -7 -9 -43 -10 -79 l-1 -66 32 0 c23 0 30 4 24 12 -6 6
-6 15 -2 19 4 5 1 5 -7 0 -10 -6 -12 -4 -6 5 6 9 4 11 -5 5 -9 -6 -11 -4 -5 5
6 9 4 11 -5 5 -9 -6 -11 -4 -5 5 6 9 4 11 -4 5 -10 -6 -10 -3 0 16 11 22 47
59 56 59 8 0 -11 -25 -29 -38 -26 -19 -22 -35 5 -18 22 15 22 15 23 -44 1 -39
-2 -57 -9 -53 -6 4 -7 1 -1 -8 12 -19 11 -15 13 -135 1 -81 4 -103 14 -98 8 6
8 3 -1 -9 -17 -20 -13 -76 7 -102 15 -19 15 -19 -3 -5 -17 13 -18 13 -15 -5 3
-11 10 -20 16 -20 7 0 18 -6 24 -13 10 -9 10 -12 1 -12 -7 0 -12 4 -12 8 0 5
-7 9 -15 9 -20 0 -21 1 22 -45 30 -33 37 -49 39 -86 2 -34 -1 -44 -9 -39 -9 5
-9 3 -1 -8 10 -12 14 -56 18 -181 0 -20 5 -40 10 -45 5 -4 6 -3 3 3 -5 8 4 11
25 10 22 -1 33 -8 39 -24 5 -12 4 -22 0 -22 -5 0 -7 -9 -4 -20 5 -19 24 -25
65 -21 10 1 18 -4 19 -11 0 -7 1 -41 2 -76 2 -46 6 -66 18 -72 18 -10 18 -34
0 -70 l-12 -25 18 23 c15 18 21 20 31 10 8 -8 12 -8 12 -1 0 6 -7 13 -15 17
-8 3 -15 10 -15 16 0 6 5 8 10 5 17 -11 11 7 -7 20 -16 12 -15 13 7 12 28 -2
26 19 29 -250 1 -76 4 -96 13 -91 10 6 10 5 1 -7 -13 -17 -12 -146 2 -141 4 2
12 -2 17 -10 7 -10 8 -8 4 5 -4 13 -1 17 11 15 9 -2 18 2 20 9 3 7 -5 10 -22
9 -28 -4 -45 12 -25 24 6 4 11 11 11 16 -1 5 5 9 12 9 6 0 11 -6 9 -14 -2 -7
3 -11 10 -8 10 3 14 -21 15 -112 3 -126 4 -139 17 -160 6 -10 5 -12 -2 -7 -7
4 -12 1 -12 -6 0 -10 12 -13 42 -11 30 1 38 -1 28 -7 -10 -7 -11 -10 -2 -10 6
0 12 -5 12 -11 0 -5 -4 -7 -10 -4 -5 3 -10 1 -10 -4 0 -6 4 -11 8 -11 5 0 9
-6 10 -12 2 -29 9 -47 22 -64 14 -18 14 -18 -4 -4 -17 13 -18 13 -15 -5 3 -13
14 -20 39 -23 19 -2 36 -5 37 -6 1 -1 3 -18 5 -38 2 -32 5 -36 27 -36 49 1 51
-1 51 -41 0 -37 2 -40 28 -39 50 1 52 -1 52 -42 0 -22 3 -39 8 -39 4 1 22 1
40 0 27 -1 33 -5 30 -21 -2 -10 6 -26 17 -35 16 -12 17 -14 3 -9 -10 3 -18 2
-18 -3 0 -5 14 -10 30 -11 17 -1 30 3 30 8 0 6 -5 8 -12 4 -7 -5 -8 -3 -4 5
13 21 42 -20 42 -58 -1 -38 21 -49 57 -29 14 7 17 7 13 -1 -5 -7 9 -11 41 -11
35 0 44 -3 33 -10 -11 -7 -11 -10 -2 -10 7 0 12 -8 11 -18 -3 -35 2 -40 37
-40 40 0 54 -14 46 -45 -4 -15 -2 -18 9 -12 12 8 12 6 0 -9 -13 -15 -12 -17
10 -14 13 2 30 7 38 12 10 6 12 5 7 -2 -7 -12 -3 -13 56 -16 28 -1 32 -5 33
-29 1 -15 -3 -30 -8 -34 -6 -4 -7 -1 -2 7 6 9 4 11 -5 5 -9 -6 -11 -4 -5 5 6
9 4 11 -5 5 -9 -6 -11 -4 -5 5 6 9 4 11 -5 5 -9 -6 -11 -4 -5 6 5 8 5 11 0 7
-4 -4 -13 -4 -19 2 -8 6 -12 -1 -12 -23 0 -36 -8 -33 124 -38 28 -1 33 -5 29
-20 -3 -11 0 -19 5 -19 6 0 5 -6 -2 -15 -10 -12 -10 -16 1 -19 35 -11 69 -12
73 -2 2 6 5 0 6 -14 1 -14 3 -34 4 -45 1 -23 33 -32 50 -15 8 9 5 11 -13 8
-15 -2 -26 3 -28 12 -3 9 -1 11 4 5 4 -5 17 -10 28 -10 11 0 19 -6 17 -12 -2
-13 21 -18 68 -14 23 2 26 -2 27 -35 1 -42 13 -53 54 -48 27 3 28 2 26 -34
l-2 -37 41 0 c44 0 86 -27 63 -41 -8 -5 -10 -3 -4 6 5 8 3 11 -6 8 -8 -3 -12
-12 -10 -19 2 -8 4 -20 4 -26 0 -7 5 -13 10 -13 5 0 6 8 3 18 -5 15 -4 15 7 2
15 -18 29 -22 87 -24 33 -1 45 -5 45 -16 0 -8 5 -19 10 -23 6 -5 0 -6 -14 -3
-23 5 -23 5 -3 -14 15 -14 39 -20 93 -23 72 -3 73 -4 74 -30 1 -15 -3 -30 -8
-34 -6 -4 -7 -1 -2 7 6 9 4 11 -5 5 -9 -6 -11 -4 -5 5 6 9 4 11 -5 5 -9 -6
-11 -4 -5 5 6 9 4 11 -5 5 -9 -6 -11 -4 -5 6 5 8 5 11 0 7 -4 -4 -13 -4 -19 2
-8 6 -12 0 -12 -23 l0 -32 84 -2 c67 -2 87 -6 98 -20 10 -13 13 -14 9 -3 -8
24 33 23 45 -1 6 -11 15 -17 19 -15 5 3 17 -4 27 -17 18 -20 18 -21 1 -7 -30
23 -56 23 -54 0 1 -11 7 -20 15 -20 8 0 10 5 6 13 -6 9 -5 9 7 0 10 -8 43 -12
83 -12 54 1 70 -2 82 -17 10 -13 12 -14 9 -3 -5 13 4 15 58 15 l63 -1 0 -30
c0 -26 -4 -30 -28 -30 -25 -1 -32 6 -29 27 0 4 -6 5 -13 2 -8 -3 -14 -14 -13
-24 1 -17 25 -18 505 -19 481 -1 504 0 491 16 -13 17 -13 17 5 3 19 -15 129
-23 120 -9 -2 4 3 10 12 13 11 4 15 2 11 -7 -5 -12 13 -15 54 -8 3 1 6 8 6 16
0 8 -4 12 -8 10 -4 -3 -10 2 -13 11 -5 12 -1 14 17 9 20 -7 21 -6 4 7 -17 13
-16 14 14 16 29 2 31 1 18 -15 -13 -17 -12 -17 6 -2 19 16 50 19 205 23 36 1
65 4 65 7 0 3 6 13 13 21 10 13 9 18 -5 29 -14 12 -16 12 -8 0 6 -10 4 -12 -6
-6 -12 8 -12 6 0 -8 14 -18 12 -20 -31 -20 -10 0 -15 -4 -11 -11 4 -6 -1 -5
-10 3 -12 9 -14 17 -7 26 6 7 6 15 0 21 -5 5 30 10 92 11 70 2 104 6 110 15 6
10 8 10 8 1 0 -7 8 -13 18 -13 20 0 42 18 42 34 0 6 -8 2 -17 -9 -15 -19 -15
-19 -9 8 4 16 2 27 -4 27 -5 0 -10 4 -10 8 0 5 39 9 87 10 84 3 113 12 113 36
0 6 -7 3 -14 -7 -11 -15 -15 -15 -19 -3 -3 8 -1 17 6 19 9 3 9 7 0 19 -14 16
-3 17 115 19 40 0 42 2 43 32 1 18 1 35 0 39 0 5 16 8 37 8 104 1 116 4 117
33 1 15 -3 30 -8 34 -6 4 -7 1 -2 -7 6 -9 4 -11 -5 -5 -9 6 -11 4 -5 -6 5 -8
4 -11 0 -6 -5 4 -18 -2 -30 -13 l-21 -19 0 32 c0 31 2 33 36 34 85 1 92 7 60
49 -14 18 -14 18 7 0 12 -10 21 -23 20 -29 -1 -6 6 -13 16 -15 11 -2 17 3 18
15 1 10 2 25 3 33 0 8 -3 18 -9 22 -5 4 12 6 40 5 50 -2 50 -2 51 31 1 17 2
36 3 41 0 6 17 8 36 7 19 -2 35 0 35 4 0 4 18 5 40 3 26 -3 40 -1 40 7 0 6 -6
8 -12 4 -10 -6 -10 -4 0 7 6 7 12 23 12 36 0 20 5 23 38 23 44 0 56 8 41 26
-7 8 -7 14 1 19 8 5 7 11 -2 23 -11 13 -10 15 5 9 10 -4 17 -2 17 5 0 9 3 9
11 1 6 -6 19 -8 30 -6 18 5 24 24 21 64 -1 12 9 15 41 15 l42 0 -1 37 c-1 20
2 38 7 38 5 1 24 2 42 3 20 1 31 7 29 15 -1 7 2 10 10 5 6 -4 24 -8 39 -9 25
-2 28 1 25 25 -2 15 -6 32 -10 39 -4 6 -4 11 1 10 4 -1 27 -1 51 0 l42 1 0 40
c0 41 1 42 52 42 15 1 29 7 32 14 3 8 1 14 -5 14 -6 0 -6 7 1 19 7 14 6 21 -3
24 -6 3 6 5 28 5 65 0 66 0 61 28 -4 21 -2 25 12 20 15 -5 15 -5 0 8 -22 16
-23 23 -3 23 8 0 15 -4 15 -9 0 -4 5 -8 11 -8 5 0 7 5 4 10 -11 17 7 11 21 -7
13 -17 14 -17 8 0 -3 9 -2 17 3 17 6 0 9 13 8 29 -1 21 2 28 12 24 8 -3 13 0
11 8 -2 8 3 14 10 14 6 0 12 -4 11 -9 0 -5 5 -12 11 -16 20 -12 3 -28 -25 -24
-16 1 -25 -2 -22 -9 2 -6 17 -11 33 -12 29 -1 30 0 29 37 -2 40 0 41 54 38 29
-2 33 1 29 18 -3 10 -1 27 4 36 6 11 5 16 -4 16 -10 0 -10 2 1 9 8 5 24 6 35
2 35 -13 46 -2 46 45 0 42 1 44 25 40 14 -3 25 0 25 5 0 5 5 9 11 9 5 0 7 -5
4 -10 -3 -6 -1 -10 4 -10 15 0 14 27 -1 33 -10 4 -10 6 0 6 6 1 12 6 12 12 0
5 -4 7 -10 4 -5 -3 -10 -2 -10 4 0 5 5 11 12 13 7 3 11 27 11 61 0 51 2 55 14
37 8 -11 19 -17 25 -14 5 4 6 9 2 13 -15 11 -47 51 -41 51 11 0 57 -50 57 -62
0 -22 13 2 16 29 2 17 -3 33 -14 42 -16 13 -16 13 1 7 15 -5 18 -1 17 22 -4
58 0 83 12 76 8 -5 8 -3 2 7 -14 21 -12 150 2 138 16 -13 26 2 12 20 -10 12
-7 12 8 -2 11 -9 25 -14 29 -10 5 5 4 1 -3 -8 -6 -9 -8 -20 -4 -24 4 -5 1 -5
-7 0 -10 6 -12 4 -6 -5 6 -9 4 -11 -6 -5 -8 5 -11 4 -6 0 4 -5 0 -16 -9 -26
-14 -16 -14 -17 3 -15 10 2 24 -1 31 -7 6 -5 13 -8 13 -6 2 7 10 221 11 322 1
53 4 94 7 90 11 -14 40 -11 46 4 4 12 0 14 -15 10 -14 -4 -23 1 -31 16 -8 19
-8 20 3 7 7 -8 22 -15 33 -15 14 0 19 -6 17 -19 -2 -11 1 -15 8 -11 14 9 9 47
-9 61 -11 9 -12 12 -1 19 9 5 11 4 6 -3 -4 -7 -2 -12 3 -12 10 0 17 103 12
170 -1 14 2 21 6 15 11 -13 33 -17 33 -6 0 5 -6 11 -14 14 -9 4 -12 14 -9 28
5 17 3 20 -7 14 -9 -5 -11 -4 -6 4 11 16 29 2 23 -19 -3 -11 5 -23 24 -34 31
-18 40 -11 12 9 -13 9 -13 14 -3 20 9 5 11 4 6 -3 -4 -7 -3 -12 2 -12 9 0 11
37 15 197 1 40 2 42 18 27 11 -10 19 -12 24 -5 9 15 28 14 19 -1 -4 -7 -3 -9
1 -5 14 12 14 36 1 31 -7 -3 -13 2 -13 11 0 9 6 14 12 11 6 -2 12 2 12 9 0 7
-7 12 -16 11 -9 -1 -16 4 -16 11 0 6 -10 21 -22 33 -22 20 -28 30 -18 30 11 0
55 -52 50 -61 -3 -5 0 -7 7 -4 21 8 22 164 19 1858 -1 493 -5 897 -9 897 -4 0
-20 12 -36 26 -28 25 -47 94 -25 94 6 0 7 6 2 13 -12 19 -13 178 0 170 6 -4 7
-1 1 8 -12 19 -13 29 -15 144 -1 76 -5 105 -18 120 -15 19 -15 19 3 5 17 -13
18 -13 14 5 -2 11 -9 19 -15 18 -6 -1 -19 8 -29 20 -18 21 -18 21 0 7 42 -33
45 -26 46 126 3 268 1 251 30 252 14 0 30 0 37 1 8 1 12 32 11 103 0 63 -3 96
-9 87 -5 -9 -9 -10 -9 -2 0 6 5 15 10 18 6 3 10 16 9 28 0 21 -1 21 -9 2 -7
-17 -9 -17 -9 -2 -1 20 -12 22 -29 5 -15 -15 -19 -10 -26 26 -4 23 -2 27 12
22 15 -5 15 -5 0 8 -13 9 -18 27 -18 61 0 33 -5 52 -17 60 -13 9 -13 14 -3 20
9 5 11 4 6 -3 -4 -7 -3 -12 3 -12 6 0 10 17 8 39 -1 22 -6 37 -10 34 -5 -3 -7
-14 -4 -24 3 -11 1 -17 -4 -13 -5 3 -9 12 -9 20 0 8 -5 14 -11 14 -5 0 -7 -5
-3 -11 5 -8 2 -9 -12 -1 -15 8 -19 23 -20 74 -4 129 -7 163 -16 182 -6 11 -6
16 -1 13 6 -4 9 22 9 62 -1 39 -5 67 -10 63 -5 -3 -7 2 -3 11 3 10 2 17 -3 17
-6 0 -10 -7 -10 -16 0 -12 -5 -11 -20 7 -10 13 -19 18 -20 12 0 -7 5 -13 10
-13 6 0 10 -5 10 -11 0 -5 -6 -7 -12 -3 -7 4 -5 -2 5 -13 9 -11 14 -23 10 -28
-5 -4 -2 -5 6 0 10 6 12 4 6 -5 -6 -9 -4 -11 5 -5 9 6 11 4 5 -5 -6 -9 -4 -11
5 -5 9 5 11 4 6 -4 -4 -6 -12 -9 -17 -6 -11 7 -12 -7 -1 -21 4 -5 -1 -1 -10 9
-12 12 -18 15 -18 6 0 -7 -3 -9 -7 -5 -4 4 -8 47 -9 96 -1 66 1 88 10 83 8 -5
8 -3 -1 8 -7 9 -12 99 -13 284 -4 395 -4 414 -13 408 -4 -3 -14 1 -22 7 -8 7
-15 8 -15 3 0 -5 -7 -10 -15 -10 -11 0 -14 11 -12 44 2 24 -1 43 -6 43 -4 0
-5 6 -1 13 6 9 4 9 -7 2 -8 -6 -25 -10 -38 -10 -21 0 -25 5 -27 35 -2 23 0 29
6 20 5 -8 6 -19 2 -25 -3 -5 2 -4 11 4 10 8 17 9 17 3 0 -6 -8 -16 -17 -21
-10 -6 -13 -11 -7 -11 6 0 14 3 18 8 4 4 12 8 17 8 5 1 13 2 17 3 5 0 9 8 9
17 0 14 -2 14 -14 -2 -10 -14 -13 -14 -13 -3 0 8 5 20 10 25 7 7 6 11 -4 11
-8 0 -13 -4 -11 -8 3 -4 -2 -10 -11 -13 -12 -5 -15 -2 -10 9 3 9 2 13 -4 10
-12 -8 -27 24 -25 55 2 27 9 26 -118 30 -30 1 -52 36 -36 56 13 16 0 24 -37
24 -24 0 -42 9 -65 31 -17 17 -28 33 -25 36 3 3 14 -5 24 -17 13 -16 21 -20
26 -12 4 7 2 12 -4 12 -7 0 -10 6 -7 13 4 10 -6 14 -31 16 -123 6 -117 5 -118
29 -1 17 3 22 15 17 11 -4 10 0 -5 13 -15 14 -20 31 -19 59 1 38 0 39 -29 38
-16 -1 -31 -6 -33 -12 -3 -7 6 -10 22 -9 28 4 45 -12 25 -24 -6 -4 -11 -11
-11 -16 1 -5 -5 -9 -11 -9 -7 0 -12 6 -10 14 2 7 -3 11 -10 9 -9 -4 -13 6 -14
31 -2 50 -7 64 -24 78 -13 11 -13 12 3 7 9 -3 17 -2 17 3 0 5 -13 10 -30 11
-16 1 -30 -3 -30 -8 0 -6 5 -8 12 -4 7 5 8 3 3 -6 -12 -20 -35 17 -35 57 0 21
-8 42 -21 56 -12 12 -19 16 -15 10 11 -20 -3 -35 -22 -24 -11 6 -18 24 -19 48
-1 21 -3 54 -4 73 -3 38 6 35 -103 42 -23 2 -32 7 -29 16 3 7 0 12 -8 10 -8
-2 -14 3 -14 10 0 6 4 12 9 11 5 0 12 5 16 11 12 20 28 3 24 -25 -1 -16 2 -25
9 -22 6 2 11 16 12 33 1 28 -1 29 -39 31 -110 5 -114 6 -119 30 -3 19 -2 21
10 11 12 -10 12 -7 2 15 -10 22 -19 27 -49 27 -23 0 -43 7 -51 17 -8 9 -9 14
-3 10 16 -9 25 28 11 42 -6 6 -17 11 -25 11 -12 0 -12 -3 -1 -17 13 -17 12
-17 -5 -3 -21 16 -34 20 -93 23 -47 3 -73 19 -52 32 7 5 10 4 6 -2 -4 -6 0
-13 8 -17 8 -3 17 0 21 6 4 7 3 8 -4 4 -8 -5 -12 1 -12 14 0 14 4 19 13 14 8
-5 8 -2 -2 9 -15 19 -31 22 -31 6 0 -5 5 -7 12 -3 7 5 8 3 3 -6 -7 -11 -10
-10 -19 1 -15 19 -26 21 -131 21 -49 1 -84 3 -77 6 10 3 8 8 -5 19 -17 13 -17
14 0 9 9 -3 17 -3 17 1 0 3 -8 12 -17 20 -10 8 -12 11 -4 7 8 -4 12 -3 8 3 -6
9 -44 13 -144 15 -28 0 -31 3 -23 18 6 12 6 27 1 42 -6 13 -10 17 -10 11 -1
-7 -6 -13 -12 -13 -5 0 -7 5 -4 10 3 6 1 10 -4 10 -6 0 -11 -6 -11 -12 0 -9
-3 -9 -8 -2 -4 6 -29 12 -57 13 -27 1 -53 8 -57 14 -6 9 -8 9 -8 0 0 -9 -11
-11 -32 -9 -18 3 -36 5 -39 5 -3 1 -4 16 -3 34 3 33 2 33 -44 35 -58 2 -73 5
-91 16 -9 6 -12 5 -7 -2 4 -7 -7 -10 -33 -9 -27 1 -37 5 -31 12 5 6 5 17 0 25
-6 8 -10 13 -11 10 -6 -34 -8 -43 -13 -48 -4 -3 -5 4 -3 16 4 28 12 35 42 37
23 1 24 -1 10 -22 -13 -20 -13 -22 3 -20 13 1 18 10 18 33 0 24 -5 32 -17 31
-10 -1 -15 -5 -13 -9 3 -4 0 -8 -5 -8 -6 0 -11 4 -11 8 0 5 -7 9 -15 9 -8 0
-11 -5 -8 -11 5 -8 2 -7 -8 0 -14 11 -63 16 -179 16 -36 0 -59 3 -52 5 6 3 12
9 12 14 0 4 -6 6 -13 3 -15 -5 -64 33 -54 42 4 4 14 -3 24 -15 13 -15 22 -18
33 -11 13 8 12 10 -2 10 -10 0 -18 5 -18 11 0 5 5 7 12 3 6 -4 8 -3 5 3 -6 9
-141 15 -362 15 -51 0 -96 5 -104 12 -11 8 -13 8 -8 0 9 -16 -212 -15 -232 0
-12 9 -13 8 -7 -2z m593 -45 c1 -11 1 -18 0 -16 -2 2 -8 11 -15 20 -9 12 -9
16 1 16 7 0 14 -9 14 -20z m86 -32 c12 -8 17 -15 12 -15 -15 0 -65 49 -65 63
0 6 7 2 15 -10 9 -12 26 -29 38 -38z m-112 18 c13 -16 12 -17 -3 -4 -10 7 -18
15 -18 17 0 8 8 3 21 -13z m84 -32 c-3 -2 -11 1 -18 7 -8 7 -18 8 -22 4 -5 -4
-5 -1 -1 5 5 10 11 10 26 1 11 -7 17 -14 15 -17z m-1095 -25 c-14 -14 -37 -16
-37 -2 0 7 11 12 24 12 15 0 20 -3 13 -10z m-460 -80 c-14 -14 -57 -15 -57 -2
0 7 15 12 34 12 22 0 29 -4 23 -10z m150 10 c0 -2 -8 -10 -17 -17 -16 -13 -17
-12 -4 4 13 16 21 21 21 13z m56 -28 c12 -14 13 -18 3 -10 -9 6 -18 10 -21 7
-2 -3 -5 2 -5 10 0 19 0 19 23 -7z m-66 -22 c-7 -7 -13 -7 -20 0 -6 6 -3 10
10 10 13 0 16 -4 10 -10z m111 -3 c13 -16 12 -17 -3 -4 -10 7 -18 15 -18 17 0
8 8 3 21 -13z m2011 -40 c-6 -3 -9 -10 -6 -15 4 -7 2 -8 -5 -4 -9 6 -9 11 0
22 6 8 15 12 18 8 3 -4 0 -9 -7 -11z m-2542 -3 c0 -5 -2 -10 -4 -10 -3 0 -8 5
-11 10 -3 6 -1 10 4 10 6 0 11 -4 11 -10z m18 -24 c-2 -22 -28 -27 -28 -4 0 5
5 6 10 3 6 -3 10 1 10 9 0 9 2 16 5 16 3 0 4 -11 3 -24z m37 14 c3 -6 -1 -7
-9 -4 -18 7 -21 14 -7 14 6 0 13 -4 16 -10z m2548 -7 c-3 -7 -9 -13 -15 -13
-5 0 -7 4 -3 9 3 5 -3 12 -12 14 -10 3 -6 4 8 4 18 -1 25 -6 22 -14z m-2558
-13 c3 -5 1 -10 -4 -10 -6 0 -11 5 -11 10 0 6 2 10 4 10 3 0 8 -4 11 -10z
m2525 6 c0 -3 -4 -8 -10 -11 -5 -3 -10 -1 -10 4 0 6 5 11 10 11 6 0 10 -2 10
-4z m-2700 -40 c0 -2 -8 -10 -17 -17 -16 -13 -17 -12 -4 4 13 16 21 21 21 13z
m-10 -50 c-7 -7 -13 -7 -20 0 -6 6 -3 10 10 10 13 0 16 -4 10 -10z m3098 -54
c-2 -10 3 -23 12 -30 13 -11 12 -12 -7 -3 -15 8 -20 17 -16 32 5 17 3 20 -7
14 -9 -5 -11 -4 -6 4 10 16 28 3 24 -17z m168 -84 c12 -14 13 -18 3 -10 -9 6
-18 10 -21 7 -2 -3 -5 2 -5 10 0 19 0 19 23 -7z m-3644 -154 c8 -16 8 -17 -4
-4 -7 9 -20 14 -30 12 -9 -2 -18 1 -21 5 -3 5 6 8 20 7 14 0 29 -9 35 -20z
m-3 -37 c0 -9 -2 -8 -6 1 -2 6 -10 9 -15 6 -7 -4 -8 -2 -4 5 9 13 26 5 25 -12z
m3984 -72 c12 -8 16 -15 10 -15 -14 0 -63 50 -63 65 0 5 7 0 15 -12 9 -12 26
-29 38 -38z m17 23 c0 -12 -10 -9 -26 6 -20 21 -17 28 6 14 11 -7 20 -16 20
-20z m-56 -24 c3 -8 2 -12 -4 -9 -6 3 -10 10 -10 16 0 14 7 11 14 -7z m188
-226 c20 4 33 -14 17 -24 -8 -5 -9 -3 -4 6 6 10 3 12 -14 7 -15 -4 -24 1 -32
16 -9 19 -8 20 3 7 7 -9 20 -14 30 -12z m251 -253 c12 -8 17 -15 12 -15 -15 0
-65 49 -65 63 0 6 7 2 15 -10 9 -12 26 -29 38 -38z m-28 -13 c-3 -3 -11 0 -18
7 -9 10 -8 11 6 5 10 -3 15 -9 12 -12z m-5029 -29 c-4 -26 -22 -34 -22 -10 0
13 5 24 12 24 6 0 11 -6 10 -14z m5310 -100 c2 -29 0 -31 -29 -29 -26 2 -32 7
-33 27 -1 34 2 36 32 34 23 -1 28 -6 30 -32z m148 -234 c0 -13 5 -28 10 -32 6
-5 0 -5 -13 -2 -17 5 -22 4 -16 -5 5 -8 4 -11 -3 -6 -6 4 -9 13 -5 22 3 9 0
14 -8 12 -8 -2 -14 4 -14 12 0 8 6 14 13 13 6 -2 12 2 12 8 0 6 6 9 12 7 7 -3
12 -15 12 -29z m-5700 -265 c5 -14 4 -15 -9 -4 -17 14 -19 20 -6 20 5 0 12 -7
15 -16z m-84 -194 c0 -5 -2 -10 -4 -10 -3 0 -8 5 -11 10 -3 6 -1 10 4 10 6 0
11 -4 11 -10z m35 0 c3 -5 1 -10 -4 -10 -6 0 -11 5 -11 10 0 6 2 10 4 10 3 0
8 -4 11 -10z m-71 -187 c3 -7 3 -13 1 -13 -6 0 -55 50 -55 56 0 9 49 -30 54
-43z m-9 -31 c-6 -7 -32 11 -44 30 -12 20 -11 20 17 -3 16 -13 28 -25 27 -27z
m5921 -115 c3 -21 1 -21 -20 2 -17 19 -17 19 0 17 9 -2 18 -10 20 -19z m-30
-89 c12 -14 13 -18 3 -10 -9 6 -18 10 -21 7 -2 -3 -5 2 -5 10 0 19 0 19 23 -7z
m-6066 -133 c0 -1 -9 -10 -19 -19 -19 -17 -19 -17 -16 1 2 10 4 18 4 19 2 2
31 1 31 -1z m6138 -183 c-2 -10 3 -23 12 -30 13 -11 12 -12 -7 -3 -15 8 -20
17 -16 32 5 17 3 20 -7 14 -9 -5 -11 -4 -6 4 10 16 28 3 24 -17z m-6215 -66
c-4 -5 0 -7 8 -4 11 4 15 -1 14 -17 0 -13 -4 -27 -8 -31 -4 -5 -5 -1 -2 7 5
13 0 16 -21 15 -15 0 -29 5 -31 12 -3 6 0 12 7 12 6 0 9 4 6 8 -2 4 4 8 14 8
10 0 16 -5 13 -10z m-4 -49 c-2 -2 -11 -8 -20 -15 -12 -9 -16 -9 -16 1 0 7 9
14 20 14 11 1 18 1 16 0z m6312 -120 c-10 -9 -11 -8 -5 6 3 10 9 15 12 12 3
-3 0 -11 -7 -18z m9 -27 c0 -5 -7 -7 -15 -4 -8 4 -15 8 -15 10 0 2 7 4 15 4 8
0 15 -4 15 -10z m-6389 -212 c14 0 17 -9 15 -52 -1 -39 -4 -52 -14 -48 -7 2
-12 1 -11 -4 3 -20 -2 -31 -15 -31 -7 0 -13 7 -11 16 1 9 -2 19 -8 22 -17 11
1 26 28 23 17 -1 25 2 22 9 -2 7 -12 11 -22 9 -13 -3 -16 1 -12 13 4 9 1 18
-7 21 -7 3 -13 12 -13 20 0 10 6 13 16 8 9 -4 23 -6 32 -6z m-7 -169 c-10 -12
-18 -24 -17 -28 1 -3 0 -8 -2 -9 -2 -2 -3 3 -1 11 2 16 25 47 34 47 3 0 -3 -9
-14 -21z m6320 -57 c2 -4 -4 -8 -14 -8 -10 0 -16 4 -14 8 3 4 9 8 14 8 5 0 11
-4 14 -8z m-6298 -19 c-2 -3 -6 -3 -9 -1 -3 2 -15 -6 -28 -17 l-24 -20 18 21
c9 11 24 21 32 21 8 0 13 -2 11 -4z m6294 -7 c0 -2 -8 -10 -17 -17 -16 -13
-17 -12 -4 4 13 16 21 21 21 13z m-6301 -23 c-1 -5 0 -10 1 -13 7 -15 5 -150
-2 -151 -4 -1 -14 -2 -20 -3 -26 -4 -34 15 -33 81 0 45 4 68 12 68 7 0 18 6
25 13 14 14 19 15 17 5z m6318 -60 c0 -10 -4 -10 -16 -1 -9 7 -18 13 -20 15
-2 1 5 1 16 0 11 0 20 -7 20 -14z m-46 -40 c13 -16 12 -17 -3 -4 -10 7 -18 15
-18 17 0 8 8 3 21 -13z m22 -41 c15 -16 15 -19 2 -19 -8 0 -13 3 -10 5 3 3 0
11 -6 19 -17 20 -5 16 14 -5z m73 -557 c15 -13 25 -27 21 -31 -4 -4 -7 -2 -7
5 0 7 -3 10 -7 8 -5 -3 -16 6 -26 19 -23 31 -18 30 19 -1z m-23 -20 c4 -8 3
-16 -1 -19 -4 -3 -9 4 -9 15 -2 23 3 25 10 4z m41 -33 c2 -4 -4 -8 -14 -8 -10
0 -16 4 -14 8 3 4 9 8 14 8 5 0 11 -4 14 -8z m-4 -26 c0 -2 -8 -10 -17 -17
-16 -13 -17 -12 -4 4 13 16 21 21 21 13z m17 -83 c0 -10 -4 -10 -16 -1 -9 7
-18 13 -20 15 -2 1 5 1 16 0 11 0 20 -7 20 -14z m-5 -28 c2 3 5 -2 5 -10 0
-10 -4 -12 -12 -5 -7 5 -16 6 -21 2 -5 -4 -6 -3 -2 2 4 5 2 16 -4 25 -10 12
-7 12 8 -2 11 -9 23 -15 26 -12z m0 -40 c2 3 5 -2 5 -10 0 -19 0 -19 -23 7
-12 14 -13 18 -3 10 9 -6 18 -10 21 -7z m-23 -29 c9 -11 9 -16 -1 -22 -7 -4
-10 -4 -6 1 4 4 3 14 -3 22 -6 7 -9 13 -6 13 2 0 10 -6 16 -14z m-6292 -623
c0 -10 -4 -10 -16 -1 -9 7 -18 13 -20 15 -2 1 5 1 16 0 11 0 20 -7 20 -14z
m-5 -27 c3 3 8 1 12 -4 11 -18 -25 -8 -41 12 -18 21 -18 21 3 3 11 -9 23 -14
26 -11z m9 -43 c13 -16 12 -17 -3 -4 -17 13 -22 21 -14 21 2 0 10 -8 17 -17z
m-28 -11 c15 -16 15 -19 2 -19 -8 0 -13 3 -10 5 3 3 0 11 -6 19 -17 20 -5 16
14 -5z m4 -65 c1 -11 1 -18 0 -16 -2 2 -8 11 -15 20 -9 12 -9 16 1 16 7 0 14
-9 14 -20z m15 -82 c2 3 5 -2 5 -10 0 -19 0 -19 -23 7 -12 14 -13 18 -3 10 9
-6 18 -10 21 -7z m0 -39 c3 3 8 1 12 -4 11 -18 -25 -8 -41 12 -18 21 -18 21 3
3 11 -9 23 -14 26 -11z m9 -43 c13 -16 12 -17 -3 -4 -10 7 -18 15 -18 17 0 8
8 3 21 -13z m-28 -11 c15 -16 15 -19 2 -19 -8 0 -13 3 -10 5 3 3 0 11 -6 19
-17 20 -5 16 14 -5z m4 -65 c1 -11 1 -18 0 -16 -2 2 -8 11 -15 20 -9 12 -9 16
1 16 7 0 14 -9 14 -20z m15 -82 c2 3 5 -2 5 -10 0 -19 0 -19 -23 7 -12 14 -13
18 -3 10 9 -6 18 -10 21 -7z m-17 -43 c-3 -3 1 -12 8 -21 11 -14 10 -14 -6 -2
-9 8 -15 16 -12 19 3 3 -1 12 -8 21 -11 14 -10 14 6 2 9 -8 15 -16 12 -19z
m-9 -44 c12 -14 13 -18 3 -10 -9 6 -18 10 -21 7 -2 -3 -5 2 -5 10 0 19 0 19
23 -7z m10 -30 c5 4 6 3 2 -2 -4 -5 -2 -16 4 -25 10 -12 7 -12 -8 2 -11 9 -23
15 -26 12 -2 -3 -5 2 -5 10 0 10 4 12 12 5 7 -5 16 -6 21 -2z m3 -55 c2 -1 -5
-1 -16 0 -11 0 -20 7 -20 14 0 10 4 10 16 1 9 -7 18 -13 20 -15z m-86 -245
c-4 -7 -8 -17 -8 -22 0 -5 -6 -11 -12 -13 -7 -3 -13 -2 -13 2 0 14 21 45 31
45 6 0 7 -5 2 -12z m7 -48 c0 -5 -5 -10 -11 -10 -5 0 -7 5 -4 10 3 6 8 10 11
10 2 0 4 -4 4 -10z m17 -32 c-3 -8 -6 -5 -6 6 -1 11 2 17 5 13 3 -3 4 -12 1
-19z m-17 -8 c0 -5 -7 -7 -15 -4 -8 4 -15 8 -15 10 0 2 7 4 15 4 8 0 15 -4 15
-10z m-20 -19 c0 -6 -4 -12 -8 -15 -5 -3 -9 1 -9 9 0 8 4 15 9 15 4 0 8 -4 8
-9z m30 -15 c0 -2 -8 -10 -17 -17 -16 -13 -17 -12 -4 4 13 16 21 21 21 13z
m-10 -50 c-7 -7 -13 -7 -20 0 -6 6 -3 10 10 10 13 0 16 -4 10 -10z m12 -51 c2
3 5 -2 5 -10 0 -19 0 -19 -23 7 -12 14 -13 18 -3 10 9 -6 18 -10 21 -7z m0
-39 c3 3 8 1 12 -4 11 -18 -25 -8 -41 12 -18 21 -18 21 3 3 11 -9 23 -14 26
-11z m2 -56 c-6 -6 -10 -3 -10 10 0 13 4 16 10 10 7 -7 7 -13 0 -20z m-24 16
c0 -2 -8 -10 -17 -17 -16 -13 -17 -12 -4 4 13 16 21 21 21 13z m16 -124 c7 -4
0 -16 -19 -31 -28 -23 -29 -23 -16 -3 8 12 18 22 24 22 5 0 3 5 -5 10 -8 5
-10 10 -5 10 6 0 15 -4 21 -8z m-22 -131 c17 -19 17 -19 0 -17 -9 2 -18 10
-20 19 -3 21 -1 21 20 -2z m6420 -289 c2 -4 -4 -8 -14 -8 -10 0 -16 4 -14 8 3
4 9 8 14 8 5 0 11 -4 14 -8z m-6303 -19 c13 -16 12 -17 -3 -4 -17 13 -22 21
-14 21 2 0 10 -8 17 -17z m-23 -14 c9 -12 9 -16 -1 -16 -7 0 -14 9 -14 20 -1
11 -1 18 0 16 2 -2 8 -11 15 -20z m6322 7 c0 -2 -8 -10 -17 -17 -16 -13 -17
-12 -4 4 13 16 21 21 21 13z m17 -31 c0 -8 -4 -12 -9 -9 -5 3 -6 10 -3 15 9
13 12 11 12 -6z m-32 -13 c6 -4 17 -16 25 -27 11 -15 7 -14 -15 5 -17 14 -32
26 -34 28 -2 1 0 2 5 2 5 0 14 -4 19 -8z m-6308 -25 c1 -11 1 -18 0 -16 -2 2
-8 11 -15 20 -9 12 -9 16 1 16 7 0 14 -9 14 -20z m6303 -52 c0 -7 3 -15 8 -18
4 -2 2 -2 -5 -1 -17 4 -26 -13 -12 -22 8 -4 9 -3 5 4 -5 8 -1 10 9 5 13 -5 14
-7 3 -14 -10 -7 -11 -9 0 -9 7 0 10 -5 7 -11 -5 -7 -13 -4 -25 9 -21 22 -23
82 -3 75 7 -3 13 -11 13 -18z m-6276 -11 c3 -8 2 -12 -4 -9 -6 3 -10 10 -10
16 0 14 7 11 14 -7z m-4 -29 c19 -22 8 -25 -12 -3 -10 10 -14 18 -9 18 5 0 14
-7 21 -15z m6234 -211 c3 -8 2 -12 -4 -9 -6 3 -10 10 -10 16 0 14 7 11 14 -7z
m-6145 -88 c-3 -3 -11 5 -18 17 -13 21 -12 21 5 5 10 -10 16 -20 13 -22z m-16
-11 c10 -14 16 -25 13 -25 -6 0 -56 49 -56 55 0 11 27 -8 43 -30z m-27 -16
c19 -22 19 -22 -3 -8 -13 8 -23 17 -23 21 0 12 6 9 26 -13z m6076 -123 c7 4 8
2 4 -5 -9 -13 -26 -5 -25 12 0 9 2 8 6 -1 2 -6 10 -9 15 -6z m-5877 -101 c1
-16 -3 -21 -14 -17 -8 3 -12 1 -8 -4 3 -5 -3 -10 -13 -10 -10 0 -16 4 -14 8 3
4 0 8 -6 8 -7 0 -10 6 -7 13 2 6 16 11 31 11 21 -1 26 2 21 15 -3 8 -2 12 2 7
4 -4 8 -18 8 -31z m5779 -221 c3 -8 2 -12 -4 -9 -6 3 -10 10 -10 16 0 14 7 11
14 -7z m48 -19 c2 3 5 -2 5 -10 0 -19 0 -19 -23 7 -12 14 -13 18 -3 10 9 -6
18 -10 21 -7z m4 -100 c0 -17 -3 -21 -11 -15 -7 6 -16 6 -21 2 -5 -4 0 3 10
16 11 12 20 22 21 22 0 0 1 -11 1 -25z m-5755 -62 c13 -16 12 -17 -3 -4 -10 7
-18 15 -18 17 0 8 8 3 21 -13z m-23 -14 c9 -12 9 -16 -1 -16 -7 0 -14 9 -14
20 -1 11 -1 18 0 16 2 -2 8 -11 15 -20z m5681 -130 c13 -11 22 -21 20 -23 -2
-3 -17 7 -32 20 -15 13 -24 24 -20 24 4 -1 19 -10 32 -21z m-82 -166 c0 -16
-1 -20 -4 -10 -2 9 -9 15 -14 12 -5 -4 -9 -2 -9 4 0 5 6 12 13 14 6 3 12 6 12
6 0 1 1 -11 2 -26z m-5496 -10 c13 -16 12 -17 -3 -4 -10 7 -18 15 -18 17 0 8
8 3 21 -13z m-28 -11 c15 -16 15 -19 2 -19 -8 0 -13 3 -10 5 3 3 0 11 -6 19
-17 20 -5 16 14 -5z m5507 -2 c0 -5 -5 -10 -11 -10 -5 0 -7 5 -4 10 3 6 8 10
11 10 2 0 4 -4 4 -10z m-5423 -143 c1 -11 1 -18 0 -16 -2 2 -8 11 -15 20 -9
12 -9 16 1 16 7 0 14 -9 14 -20z m297 -299 c-5 -8 0 -9 15 -5 15 4 24 -1 32
-16 9 -20 9 -20 -4 -5 -8 10 -17 15 -20 12 -10 -10 -39 5 -32 16 3 5 8 10 11
10 3 0 2 -5 -2 -12z m4606 -2 c0 -3 -4 -8 -10 -11 -5 -3 -10 -1 -10 4 0 6 5
11 10 11 6 0 10 -2 10 -4z m-4474 -79 c5 -4 1 -5 -7 -2 -13 5 -16 0 -15 -21 0
-15 -5 -29 -11 -31 -7 -3 -13 0 -13 7 0 6 -4 9 -8 6 -4 -2 -8 4 -8 14 0 10 5
16 10 13 5 -4 7 0 4 8 -4 11 1 15 17 14 13 0 27 -4 31 -8z m4382 -17 c7 -11 9
-20 6 -20 -6 0 -44 40 -44 46 0 10 27 -9 38 -26z m-28 -15 c19 -22 20 -26 5
-15 -24 18 -35 32 -35 44 0 5 1 7 3 5 1 -2 13 -17 27 -34z m-4140 -119 c0 -2
-8 -10 -17 -17 -16 -13 -17 -12 -4 4 13 16 21 21 21 13z m17 -31 c0 -8 -3 -13
-5 -10 -3 3 -12 -1 -21 -7 -10 -8 -9 -4 3 10 23 26 23 26 23 7z m47 -94 c17
-19 17 -19 0 -17 -9 2 -18 10 -20 19 -3 21 -1 21 20 -2z m3672 -71 c0 -12 -4
-16 -9 -11 -5 5 -6 14 -3 20 10 15 12 14 12 -9z m44 16 c0 -2 -8 -10 -17 -17
-16 -13 -17 -12 -4 4 13 16 21 21 21 13z m-3478 -70 c7 4 8 2 4 -5 -9 -13 -26
-5 -25 12 0 9 2 8 6 -1 2 -6 10 -9 15 -6z m33 4 c-3 -5 -1 -10 6 -10 7 0 10
-3 6 -6 -9 -9 -28 6 -22 17 4 5 8 9 11 9 3 0 2 -4 -1 -10z m3122 -205 c0 -6
-11 -11 -23 -11 -16 0 -20 3 -14 11 5 7 16 12 23 12 8 0 14 -5 14 -12z m-2804
-66 c-5 -17 -3 -20 7 -14 9 5 11 4 6 -4 -10 -16 -28 -3 -24 17 2 10 -3 23 -12
30 -13 11 -12 12 7 3 15 -8 20 -17 16 -32z m211 -168 c17 -19 17 -19 0 -17 -9
2 -18 10 -20 19 -3 21 -1 21 20 -2z m2116 9 c0 -5 -4 -10 -10 -10 -5 0 -10 5
-10 10 0 6 5 10 10 10 6 0 10 -4 10 -10z m-699 -137 c13 -16 12 -17 -3 -4 -17
13 -22 21 -14 21 2 0 10 -8 17 -17z m197 -2 c0 -9 2 -23 6 -32 5 -10 2 -16 -8
-16 -8 0 -17 6 -20 13 -3 8 -12 11 -21 7 -12 -4 -16 -1 -13 12 2 10 -2 20 -9
22 -7 3 -10 -5 -9 -22 4 -28 -12 -45 -24 -25 -4 6 -11 11 -16 11 -5 -1 -9 5
-9 12 0 6 6 11 14 9 7 -2 11 3 9 10 -4 10 9 13 48 14 43 2 52 -1 52 -15z
m-146 -16 c2 3 5 -2 5 -10 0 -19 0 -19 -23 7 -12 14 -13 18 -3 10 9 -6 18 -10
21 -7z"/>
<path d="M7854 8755 c0 -15 6 -21 21 -21 15 0 21 6 21 21 0 15 -6 21 -21 21
-15 0 -21 -6 -21 -21z m30 -6 c-3 -5 -10 -7 -15 -3 -5 3 -7 10 -3 15 3 5 10 7
15 3 5 -3 7 -10 3 -15z"/>
<path d="M8034 8529 c-3 -6 -2 -15 3 -20 5 -5 9 -1 9 11 0 23 -2 24 -12 9z"/>
<path d="M1946 7242 c-2 -4 4 -8 14 -8 10 0 16 4 14 8 -3 4 -9 8 -14 8 -5 0
-11 -4 -14 -8z"/>
<path d="M1879 6831 c7 -5 11 -13 8 -18 -3 -5 -1 -10 6 -10 22 0 14 33 -8 35
-14 1 -16 -1 -6 -7z"/>
<path d="M1870 6756 c7 -7 13 -7 20 0 6 6 3 10 -10 10 -13 0 -16 -4 -10 -10z"/>
<path d="M1885 6550 c-4 -6 -10 -8 -14 -6 -4 3 -6 -26 -6 -62 0 -60 3 -67 20
-67 18 0 20 7 20 68 1 66 -6 89 -20 67z m10 -63 c0 -38 -4 -64 -10 -64 -12 0
-14 95 -2 115 5 6 9 12 10 12 1 0 2 -28 2 -63z"/>
<path d="M2190 2516 c7 -7 13 -7 20 0 6 6 3 10 -10 10 -13 0 -16 -4 -10 -10z"/>
<path d="M2834 1249 c-3 -6 -2 -15 3 -20 5 -5 9 -1 9 11 0 23 -2 24 -12 9z"/>
<path d="M5523 293 c0 -7 5 -9 10 -6 5 3 13 -1 18 -8 6 -10 8 -8 7 6 -2 22
-35 30 -35 8z"/>
<path d="M5474 289 c-3 -6 -2 -15 3 -20 5 -5 9 -1 9 11 0 23 -2 24 -12 9z"/>
<path d="M5700 10153 c0 -6 4 -14 10 -18 5 -3 7 -12 4 -19 -7 -19 14 -30 30
-17 7 6 17 7 21 3 5 -4 5 -1 1 6 -5 9 -12 9 -27 2 -13 -8 -19 -7 -19 0 0 6 6
13 14 16 8 3 17 13 21 22 5 14 3 13 -14 -2 -18 -17 -20 -17 -30 1 -6 10 -11
13 -11 6z"/>
<path d="M4669 10117 c6 -8 9 -16 6 -19 -3 -2 2 -5 10 -5 13 0 13 3 -2 19 -19
21 -31 25 -14 5z"/>
<path d="M4541 10046 c-9 -11 -9 -16 1 -22 7 -4 10 -4 6 1 -4 4 -3 14 3 22 6
7 9 13 6 13 -2 0 -10 -6 -16 -14z"/>
<path d="M6013 10045 c0 -8 3 -13 5 -10 3 3 12 -1 21 -7 10 -8 9 -4 -3 10 -23
26 -23 26 -23 7z"/>
<path d="M6166 9983 c-6 -14 -5 -15 5 -6 7 7 10 15 7 18 -3 3 -9 -2 -12 -12z"/>
<path d="M6195 9990 c-3 -5 -1 -10 4 -10 6 0 11 5 11 10 0 6 -2 10 -4 10 -3 0
-8 -4 -11 -10z"/>
<path d="M6222 9971 c-11 -7 -11 -9 0 -14 9 -3 15 1 15 9 0 8 -1 14 -1 14 -1
0 -7 -4 -14 -9z"/>
<path d="M6175 9959 c-11 -16 -1 -19 13 -3 7 8 8 14 3 14 -5 0 -13 -5 -16 -11z"/>
<path d="M4036 9942 c-3 -5 1 -9 9 -9 8 0 12 4 9 9 -3 4 -7 8 -9 8 -2 0 -6 -4
-9 -8z"/>
<path d="M6190 9946 c0 -2 7 -6 15 -10 8 -3 15 -1 15 4 0 6 -7 10 -15 10 -8 0
-15 -2 -15 -4z"/>
<path d="M6580 9831 c0 -6 4 -13 10 -16 6 -3 7 1 4 9 -7 18 -14 21 -14 7z"/>
<path d="M6620 9825 c-7 -9 -10 -18 -7 -21 3 -3 10 4 17 15 13 25 8 27 -10 6z"/>
<path d="M3555 9801 c-3 -5 -2 -12 3 -15 5 -3 9 1 9 9 0 17 -3 19 -12 6z"/>
<path d="M6594 9788 c3 -15 26 -23 26 -8 0 6 -4 9 -9 6 -5 -4 -12 -1 -14 4 -3
6 -4 5 -3 -2z"/>
<path d="M6630 9790 c0 -5 5 -10 11 -10 5 0 7 5 4 10 -3 6 -8 10 -11 10 -2 0
-4 -4 -4 -10z"/>
<path d="M3446 9743 c-6 -14 -5 -15 5 -6 7 7 10 15 7 18 -3 3 -9 -2 -12 -12z"/>
<path d="M3475 9750 c-3 -5 -1 -10 4 -10 6 0 11 5 11 10 0 6 -2 10 -4 10 -3 0
-8 -4 -11 -10z"/>
<path d="M6844 9722 c23 -26 23 -26 23 -7 0 8 -3 13 -5 10 -3 -3 -12 1 -21 7
-10 8 -9 4 3 -10z"/>
<path d="M3450 9710 c-6 -11 -9 -20 -8 -20 2 0 11 9 21 20 9 11 13 20 7 20 -5
0 -14 -9 -20 -20z"/>
<path d="M3470 9706 c0 -2 7 -6 15 -10 8 -3 15 -1 15 4 0 6 -7 10 -15 10 -8 0
-15 -2 -15 -4z"/>
<path d="M3396 9667 c3 -10 9 -15 12 -12 3 3 0 11 -7 18 -10 9 -11 8 -5 -6z"/>
<path d="M3379 9653 c14 -28 14 -36 -1 -27 -7 4 -8 3 -4 -5 7 -11 26 -6 26 8
0 4 -7 16 -16 27 -15 18 -15 18 -5 -3z"/>
<path d="M3286 9591 c-1 -3 -2 -17 -2 -31 1 -21 6 -25 31 -25 27 0 30 3 30 29
0 26 -4 30 -28 31 -15 1 -29 -1 -31 -4z m50 -26 c0 -15 -6 -21 -21 -21 -15 0
-21 6 -21 21 0 15 6 21 21 21 15 0 21 -6 21 -21z"/>
<path d="M3306 9571 c-4 -5 -2 -12 3 -15 5 -4 12 -2 15 3 4 5 2 12 -3 15 -5 4
-12 2 -15 -3z"/>
<path d="M7085 9580 c-6 -9 11 -50 21 -50 2 0 0 9 -6 19 -13 26 -13 34 2 25 7
-4 8 -3 4 4 -9 15 -13 15 -21 2z"/>
<path d="M7154 9489 c-3 -6 -2 -15 3 -20 5 -5 9 -1 9 11 0 23 -2 24 -12 9z"/>
<path d="M3050 9419 c0 -5 5 -7 10 -4 6 3 10 8 10 11 0 2 -4 4 -10 4 -5 0 -10
-5 -10 -11z"/>
<path d="M2996 9347 c3 -10 9 -15 12 -12 3 3 0 11 -7 18 -10 9 -11 8 -5 -6z"/>
<path d="M7337 9349 c7 -7 15 -10 18 -7 3 3 -2 9 -12 12 -14 6 -15 5 -6 -5z"/>
<path d="M2979 9333 c14 -28 14 -36 -1 -27 -7 4 -8 3 -4 -5 7 -11 26 -6 26 8
0 4 -7 16 -16 27 -15 18 -15 18 -5 -3z"/>
<path d="M7300 9340 c0 -6 4 -9 9 -6 5 4 12 1 14 -4 3 -6 4 -5 3 2 -3 15 -26
23 -26 8z"/>
<path d="M7340 9320 c0 -5 5 -10 11 -10 5 0 7 5 4 10 -3 6 -8 10 -11 10 -2 0
-4 -4 -4 -10z"/>
<path d="M7297 9313 c-4 -3 -7 -11 -7 -17 0 -6 5 -5 12 2 6 6 9 14 7 17 -3 3
-9 2 -12 -2z"/>
<path d="M2900 9260 c0 -6 4 -9 9 -6 5 4 12 1 14 -4 3 -6 4 -5 3 2 -3 15 -26
23 -26 8z"/>
<path d="M2895 9230 c-3 -5 -1 -10 4 -10 6 0 11 5 11 10 0 6 -2 10 -4 10 -3 0
-8 -4 -11 -10z"/>
<path d="M2820 9191 c0 -6 4 -13 10 -16 6 -3 7 1 4 9 -7 18 -14 21 -14 7z"/>
<path d="M2805 9160 c3 -5 8 -10 11 -10 2 0 4 5 4 10 0 6 -5 10 -11 10 -5 0
-7 -4 -4 -10z"/>
<path d="M2834 9148 c3 -15 26 -23 26 -8 0 6 -4 9 -9 6 -5 -4 -12 -1 -14 4 -3
6 -4 5 -3 -2z"/>
<path d="M2740 9100 c0 -6 4 -9 9 -6 5 4 12 1 14 -4 3 -6 4 -5 3 2 -3 15 -26
23 -26 8z"/>
<path d="M7470 9076 c7 -7 13 -7 20 0 6 6 3 10 -10 10 -13 0 -16 -4 -10 -10z"/>
<path d="M2735 9070 c-3 -5 -1 -10 4 -10 6 0 11 5 11 10 0 6 -2 10 -4 10 -3 0
-8 -4 -11 -10z"/>
<path d="M7550 9030 c0 -5 5 -10 11 -10 5 0 7 5 4 10 -3 6 -8 10 -11 10 -2 0
-4 -4 -4 -10z"/>
<path d="M7580 9031 c0 -6 4 -13 10 -16 6 -3 7 1 4 9 -7 18 -14 21 -14 7z"/>
<path d="M2677 9008 c19 -21 31 -25 14 -5 -6 8 -9 16 -6 19 3 2 -2 5 -10 5
-13 0 -13 -3 2 -19z"/>
<path d="M7570 9003 c5 -2 8 -9 4 -14 -3 -5 0 -9 6 -9 15 0 7 23 -8 26 -7 1
-8 0 -2 -3z"/>
<path d="M7535 8980 c-3 -5 -2 -10 4 -10 5 0 13 5 16 10 3 6 2 10 -4 10 -5 0
-13 -4 -16 -10z"/>
<path d="M7780 8876 c0 -2 7 -7 16 -10 8 -3 12 -2 9 4 -6 10 -25 14 -25 6z"/>
<path d="M2606 8831 c-10 -11 -13 -21 -7 -25 10 -7 24 10 27 32 3 16 0 15 -20
-7z"/>
<path d="M7810 8846 c0 -2 7 -7 16 -10 8 -3 12 -2 9 4 -6 10 -25 14 -25 6z"/>
<path d="M7775 8831 c-3 -5 0 -13 6 -17 8 -4 9 -3 5 4 -9 15 -1 15 27 1 21
-10 21 -10 3 5 -23 18 -32 20 -41 7z"/>
<path d="M2500 8700 c0 -6 7 -10 15 -10 8 0 15 2 15 4 0 2 -7 6 -15 10 -8 3
-15 1 -15 -4z"/>
<path d="M2532 8684 c-7 -8 -8 -14 -3 -14 10 0 25 19 20 25 -2 1 -10 -3 -17
-11z"/>
<path d="M2483 8675 c0 -7 6 -11 14 -8 7 3 13 6 13 8 0 2 -6 5 -13 8 -8 3 -14
-1 -14 -8z"/>
<path d="M2420 8540 c0 -6 4 -9 9 -6 5 4 12 1 14 -4 3 -6 4 -5 3 2 -3 15 -26
23 -26 8z"/>
<path d="M2415 8510 c-3 -5 -1 -10 4 -10 6 0 11 5 11 10 0 6 -2 10 -4 10 -3 0
-8 -4 -11 -10z"/>
<path d="M2356 8313 c-9 -23 1 -28 18 -10 13 13 13 16 2 20 -8 3 -17 -1 -20
-10z"/>
<path d="M2260 8140 c0 -6 4 -9 9 -6 5 4 12 1 14 -4 3 -6 4 -5 3 2 -3 15 -26
23 -26 8z"/>
<path d="M2255 8110 c-3 -5 -1 -10 4 -10 6 0 11 5 11 10 0 6 -2 10 -4 10 -3 0
-8 -4 -11 -10z"/>
<path d="M8095 7980 c-3 -5 -1 -10 4 -10 6 0 11 5 11 10 0 6 -2 10 -4 10 -3 0
-8 -4 -11 -10z"/>
<path d="M8135 7980 c3 -5 8 -10 11 -10 2 0 4 5 4 10 0 6 -5 10 -11 10 -5 0
-7 -4 -4 -10z"/>
<path d="M2193 7955 c0 -8 4 -12 9 -9 5 3 6 10 3 15 -9 13 -12 11 -12 -6z"/>
<path d="M8139 7913 c-13 -16 -12 -17 4 -4 9 7 17 15 17 17 0 8 -8 3 -21 -13z"/>
<path d="M8109 7877 c6 -8 9 -16 6 -19 -3 -2 2 -5 10 -5 13 0 13 3 -2 19 -19
21 -31 25 -14 5z"/>
<path d="M8100 7825 c-7 -8 -9 -15 -6 -15 4 0 14 7 22 15 9 8 11 15 6 15 -5 0
-15 -7 -22 -15z"/>
<path d="M8130 7815 c-13 -14 -20 -25 -15 -25 7 0 45 39 45 47 0 7 -8 2 -30
-22z"/>
<path d="M2105 7761 c6 -11 4 -13 -7 -9 -8 4 -15 1 -15 -7 0 -7 6 -11 14 -8 9
4 11 0 7 -11 -3 -9 -9 -14 -13 -11 -4 2 -8 -3 -8 -11 0 -10 4 -11 11 -4 5 5
17 10 26 10 12 0 12 -2 1 -9 -9 -6 -10 -11 -2 -15 6 -4 11 -2 11 3 0 21 2 26
12 39 8 9 8 16 0 24 -7 7 -12 8 -12 4 0 -5 -8 -2 -17 5 -14 12 -16 12 -8 0z
m32 -25 c-5 -15 -24 -18 -24 -3 0 8 6 14 14 14 7 0 12 -5 10 -11z"/>
<path d="M8094 7716 c0 -12 6 -23 13 -23 9 0 10 4 3 12 -5 7 -7 14 -4 17 3 3
1 8 -3 11 -5 3 -9 -5 -9 -17z"/>
<path d="M2036 7587 c3 -10 9 -15 12 -12 3 3 0 11 -7 18 -10 9 -11 8 -5 -6z"/>
<path d="M2019 7573 c14 -28 14 -36 -1 -27 -7 4 -8 3 -4 -5 7 -11 26 -6 26 8
0 4 -7 16 -16 27 -15 18 -15 18 -5 -3z"/>
<path d="M2055 7491 c-3 -5 -2 -12 3 -15 5 -3 9 1 9 9 0 17 -3 19 -12 6z"/>
<path d="M8183 7438 c-6 -7 -10 -21 -10 -30 0 -14 3 -15 14 -7 9 8 13 8 13 1
0 -6 -8 -16 -17 -21 -10 -6 -13 -11 -7 -11 6 0 14 3 18 8 4 4 12 8 17 8 5 1
13 2 17 3 5 0 9 8 9 17 0 14 -2 14 -14 -2 -10 -14 -13 -14 -13 -3 0 8 6 21 13
28 10 11 10 13 0 7 -7 -4 -13 -2 -13 3 0 15 -15 14 -27 -1z m16 -19 c-16 -10
-23 -4 -14 10 3 6 11 8 17 5 6 -4 5 -9 -3 -15z"/>
<path d="M1949 7317 c6 -8 9 -16 6 -19 -3 -2 2 -5 10 -5 13 0 13 3 -2 19 -19
21 -31 25 -14 5z"/>
<path d="M8270 7190 c0 -5 5 -10 11 -10 5 0 7 5 4 10 -3 6 -8 10 -11 10 -2 0
-4 -4 -4 -10z"/>
<path d="M8300 7191 c0 -6 4 -13 10 -16 6 -3 7 1 4 9 -7 18 -14 21 -14 7z"/>
<path d="M8290 7163 c5 -2 8 -9 4 -14 -3 -5 0 -9 6 -9 15 0 7 23 -8 26 -7 1
-8 0 -2 -3z"/>
<path d="M8260 7139 c0 -5 5 -7 10 -4 6 3 10 8 10 11 0 2 -4 4 -10 4 -5 0 -10
-5 -10 -11z"/>
<path d="M1850 6899 c0 -5 5 -7 10 -4 6 3 10 8 10 11 0 2 -4 4 -10 4 -5 0 -10
-5 -10 -11z"/>
<path d="M8256 6854 c-3 -8 -2 -12 4 -9 6 3 10 2 10 -4 0 -5 -6 -12 -12 -14
-10 -4 -10 -6 0 -6 8 -1 10 -6 6 -13 -5 -9 -2 -9 9 1 15 12 17 11 18 -5 0 -11
3 -14 6 -6 2 6 9 9 15 6 6 -4 6 2 -1 14 -13 25 -14 35 -3 28 5 -3 9 1 9 9 0 8
-4 15 -8 15 -10 0 -20 -30 -13 -43 3 -7 -2 -3 -10 7 -13 16 -13 22 -3 28 9 6
8 8 -4 8 -9 0 -20 -7 -23 -16z"/>
<path d="M1884 6362 c23 -26 23 -26 23 -7 0 8 -3 13 -5 10 -3 -3 -12 1 -21 7
-10 8 -9 4 3 -10z"/>
<path d="M1873 6323 c4 -3 1 -13 -6 -22 -11 -14 -10 -14 5 -2 16 12 16 31 1
31 -4 0 -3 -3 0 -7z"/>
<path d="M1870 6276 c0 -2 8 -10 18 -17 15 -13 16 -12 3 4 -13 16 -21 21 -21
13z"/>
<path d="M8296 6233 c-6 -14 -5 -15 5 -6 7 7 10 15 7 18 -3 3 -9 -2 -12 -12z"/>
<path d="M8269 6197 c6 -8 9 -16 6 -19 -3 -2 2 -5 10 -5 13 0 13 3 -2 19 -19
21 -31 25 -14 5z"/>
<path d="M8254 6139 c-4 -8 -3 -9 4 -5 15 9 15 1 1 -27 -10 -21 -10 -21 5 -3
9 11 16 23 16 27 0 14 -19 19 -26 8z"/>
<path d="M8306 6123 c-6 -14 -5 -15 5 -6 7 7 10 15 7 18 -3 3 -9 -2 -12 -12z"/>
<path d="M8275 6090 c-4 -11 -10 -18 -14 -16 -9 6 -8 -55 2 -71 4 -6 3 -14 -1
-17 -24 -14 1 -76 38 -96 14 -8 16 2 14 93 -1 56 -2 104 -3 106 0 2 -8 -3 -17
-10 -15 -12 -16 -11 -10 9 4 12 5 22 2 22 -2 0 -8 -9 -11 -20z m30 -95 c0 -47
-3 -85 -7 -85 -5 0 -8 5 -8 10 0 6 -5 9 -12 8 -13 -3 -19 50 -6 58 5 3 5 11 0
17 -12 17 -9 62 5 62 6 0 15 3 19 8 4 4 8 7 8 7 1 0 1 -38 1 -85z"/>
<path d="M8274 6036 c1 -12 5 -26 9 -32 3 -6 3 -14 0 -18 -12 -12 -11 -53 1
-53 7 0 11 24 11 62 0 38 -4 62 -11 62 -6 0 -10 -10 -10 -21z"/>
<path d="M8367 4003 c-3 -5 -2 -15 4 -23 13 -22 11 -26 -12 -27 -16 -2 -18 1
-10 11 11 14 5 26 -13 26 -6 0 -4 -5 4 -10 8 -5 10 -10 5 -10 -13 0 -14 -268
-2 -287 5 -8 4 -13 -2 -13 -6 0 -11 -5 -11 -12 0 -6 9 -3 20 7 11 10 20 13 20
7 0 -7 5 -12 11 -12 5 0 8 4 4 9 -3 5 -2 12 3 15 12 7 8 304 -5 317 -6 6 -13
7 -16 2z m18 -191 c0 -120 -1 -127 -20 -127 -19 0 -20 7 -21 120 0 118 6 148
29 139 9 -3 12 -42 12 -132z"/>
<path d="M8359 3938 c-1 -2 -2 -57 -3 -124 -1 -78 2 -121 9 -121 9 0 14 210 5
227 -1 3 -2 8 -1 13 1 6 -7 10 -10 5z"/>
<path d="M8365 3630 c10 -11 23 -20 28 -20 6 0 1 9 -11 20 -12 11 -24 20 -28
20 -4 0 1 -9 11 -20z"/>
<path d="M8340 3615 c7 -8 17 -15 22 -15 5 0 3 7 -6 15 -8 8 -18 15 -22 15 -3
0 -1 -7 6 -15z"/>
<path d="M1886 3592 c-3 -5 1 -15 8 -21 11 -10 14 -9 12 3 -3 21 -13 29 -20
18z"/>
<path d="M8357 3568 c19 -21 31 -25 14 -5 -6 8 -9 16 -6 19 3 2 -2 5 -10 5
-13 0 -13 -3 2 -19z"/>
<path d="M1877 3488 c19 -21 31 -25 14 -5 -6 8 -9 16 -6 19 3 2 -2 5 -10 5
-13 0 -13 -3 2 -19z"/>
<path d="M1924 3027 l1 -63 31 0 c28 0 30 3 29 34 0 24 -9 41 -27 57 -15 13
-24 26 -21 29 4 3 2 6 -4 6 -6 0 -10 -26 -9 -63z m26 13 c0 -5 5 -9 12 -7 7 1
12 -10 13 -28 0 -23 -4 -30 -20 -30 -15 0 -19 7 -20 38 -1 20 2 37 7 37 4 0 8
-4 8 -10z"/>
<path d="M1944 3005 c0 -12 5 -22 11 -22 6 0 11 10 11 22 0 12 -5 22 -11 22
-6 0 -11 -10 -11 -22z"/>
<path d="M1957 2928 c19 -21 31 -25 14 -5 -6 8 -9 16 -6 19 3 2 -2 5 -10 5
-13 0 -13 -3 2 -19z"/>
<path d="M8205 2780 c-6 -9 11 -50 21 -50 2 0 0 9 -6 19 -13 26 -13 34 2 25 7
-4 8 -3 4 4 -9 15 -13 15 -21 2z"/>
<path d="M8190 2741 c0 -6 4 -13 10 -16 6 -3 7 1 4 9 -7 18 -14 21 -14 7z"/>
<path d="M8101 2541 c-12 -8 -8 -62 5 -60 9 1 9 4 -1 29 -4 11 1 16 16 17 16
2 18 -1 9 -12 -9 -11 -7 -16 7 -24 16 -8 19 -6 18 19 0 15 -3 26 -7 23 -5 -2
-8 0 -8 5 0 10 -24 12 -39 3z"/>
<path d="M2165 2460 c3 -5 8 -10 11 -10 2 0 4 5 4 10 0 6 -5 10 -11 10 -5 0
-7 -4 -4 -10z"/>
<path d="M8035 2230 c-4 -6 -10 -8 -14 -6 -4 3 -7 -6 -7 -19 0 -14 1 -23 2
-22 1 1 2 5 1 8 -1 4 7 16 17 28 11 12 16 21 13 21 -3 0 -9 -5 -12 -10z"/>
<path d="M8050 2136 c0 -2 8 -10 18 -17 15 -13 16 -12 3 4 -13 16 -21 21 -21
13z"/>
<path d="M8033 2113 c0 -11 7 -20 14 -20 10 0 10 4 1 16 -7 9 -13 18 -15 20
-1 2 -1 -5 0 -16z"/>
<path d="M2266 2042 c-2 -4 4 -8 14 -8 10 0 16 4 14 8 -3 4 -9 8 -14 8 -5 0
-11 -4 -14 -8z"/>
<path d="M2295 1990 c-3 -5 -1 -10 4 -10 6 0 11 5 11 10 0 6 -2 10 -4 10 -3 0
-8 -4 -11 -10z"/>
<path d="M2257 1945 c-23 -32 -17 -32 17 0 15 14 21 25 14 25 -7 0 -21 -12
-31 -25z"/>
<path d="M2281 1928 c-14 -23 -14 -23 8 -4 22 20 25 26 13 26 -4 0 -13 -10
-21 -22z"/>
<path d="M2340 1740 c0 -6 4 -9 9 -6 5 4 12 1 14 -4 3 -6 4 -5 3 2 -3 15 -26
23 -26 8z"/>
<path d="M2330 1698 c-12 -22 -12 -22 6 -6 10 10 15 20 12 24 -4 3 -12 -5 -18
-18z"/>
<path d="M2366 1697 c3 -10 9 -15 12 -12 3 3 0 11 -7 18 -10 9 -11 8 -5 -6z"/>
<path d="M7626 1562 c-2 -4 4 -8 14 -8 10 0 16 4 14 8 -3 4 -9 8 -14 8 -5 0
-11 -4 -14 -8z"/>
<path d="M7570 1483 c5 -2 8 -9 4 -14 -3 -5 0 -9 6 -9 15 0 7 23 -8 26 -7 1
-8 0 -2 -3z"/>
<path d="M7540 1459 c0 -5 5 -7 10 -4 6 3 10 8 10 11 0 2 -4 4 -10 4 -5 0 -10
-5 -10 -11z"/>
<path d="M7466 1398 c3 -5 10 -6 15 -3 13 9 11 12 -6 12 -8 0 -12 -4 -9 -9z"/>
<path d="M7136 1181 c-1 -3 -2 -17 -2 -31 1 -21 6 -25 31 -25 27 0 30 3 30 29
0 26 -4 30 -28 31 -15 1 -29 -1 -31 -4z m50 -26 c0 -15 -6 -21 -21 -21 -15 0
-21 6 -21 21 0 15 6 21 21 21 15 0 21 -6 21 -21z"/>
<path d="M7156 1161 c-4 -5 -2 -12 3 -15 5 -4 12 -2 15 3 4 5 2 12 -3 15 -5 4
-12 2 -15 -3z"/>
<path d="M2904 1158 c9 -5 23 -5 32 0 12 6 7 9 -16 9 -23 0 -28 -3 -16 -9z"/>
<path d="M7085 1100 c-6 -9 11 -50 21 -50 2 0 0 9 -6 19 -13 26 -13 34 2 25 7
-4 8 -3 4 4 -9 15 -13 15 -21 2z"/>
<path d="M7070 1061 c0 -6 4 -13 10 -16 6 -3 7 1 4 9 -7 18 -14 21 -14 7z"/>
<path d="M3160 1025 c0 -2 6 -8 13 -14 10 -8 14 -7 14 2 0 8 -6 14 -14 14 -7
0 -13 -1 -13 -2z"/>
<path d="M6993 1005 c0 -8 4 -12 9 -9 5 3 6 10 3 15 -9 13 -12 11 -12 -6z"/>
<path d="M6736 861 c-1 -3 -2 -17 -2 -31 1 -21 6 -25 31 -25 27 0 30 3 30 29
0 26 -4 30 -28 31 -15 1 -29 -1 -31 -4z m50 -26 c0 -15 -6 -21 -21 -21 -15 0
-21 6 -21 21 0 15 6 21 21 21 15 0 21 -6 21 -21z"/>
<path d="M6756 841 c-4 -5 -2 -12 3 -15 5 -4 12 -2 15 3 4 5 2 12 -3 15 -5 4
-12 2 -15 -3z"/>
<path d="M3455 751 c-3 -5 0 -13 6 -17 8 -4 9 -3 5 4 -9 15 -1 15 27 1 21 -10
21 -10 3 5 -23 18 -32 20 -41 7z"/>
<path d="M6499 706 c0 -1 -2 -9 -4 -19 -3 -18 -3 -18 16 -1 10 9 19 18 19 19
0 2 -29 3 -31 1z"/>
<path d="M3805 540 c-3 -5 -2 -10 4 -10 5 0 13 5 16 10 3 6 2 10 -4 10 -5 0
-13 -4 -16 -10z"/>
<path d="M6260 540 c0 -6 4 -9 9 -6 5 4 12 1 14 -4 3 -6 4 -5 3 2 -3 15 -26
23 -26 8z"/>
<path d="M3772 528 c2 -6 10 -13 16 -14 7 -1 8 0 2 3 -5 2 -8 9 -4 14 3 5 0 9
-6 9 -7 0 -10 -5 -8 -12z"/>
<path d="M6300 520 c0 -5 5 -10 11 -10 5 0 7 5 4 10 -3 6 -8 10 -11 10 -2 0
-4 -4 -4 -10z"/>
<path d="M3766 497 c3 -10 9 -15 12 -12 3 3 0 11 -7 18 -10 9 -11 8 -5 -6z"/>
<path d="M6286 497 c3 -10 9 -15 12 -12 3 3 0 11 -7 18 -10 9 -11 8 -5 -6z"/>
<path d="M3795 490 c3 -5 8 -10 11 -10 2 0 4 5 4 10 0 6 -5 10 -11 10 -5 0 -7
-4 -4 -10z"/>
<path d="M3960 465 c0 -2 6 -8 13 -14 10 -8 14 -7 14 2 0 8 -6 14 -14 14 -7 0
-13 -1 -13 -2z"/>
<path d="M6100 460 c0 -6 4 -9 9 -6 5 4 12 1 14 -4 3 -6 4 -5 3 2 -3 15 -26
23 -26 8z"/>
<path d="M6140 440 c0 -5 5 -10 11 -10 5 0 7 5 4 10 -3 6 -8 10 -11 10 -2 0
-4 -4 -4 -10z"/>
<path d="M6126 417 c3 -10 9 -15 12 -12 3 3 0 11 -7 18 -10 9 -11 8 -5 -6z"/>
<path d="M4137 383 c-4 -3 -7 -11 -7 -17 0 -6 5 -5 12 2 6 6 9 14 7 17 -3 3
-9 2 -12 -2z"/>
<path d="M5855 381 c3 -2 1 -9 -5 -16 -6 -8 -2 -11 15 -11 14 0 25 4 25 9 0 5
-8 6 -17 3 -16 -5 -16 -4 1 8 18 14 18 15 -2 13 -12 0 -19 -3 -17 -6z"/>
<path d="M4085 360 c3 -5 8 -10 11 -10 2 0 4 5 4 10 0 6 -5 10 -11 10 -5 0 -7
-4 -4 -10z"/>
<path d="M4114 348 c3 -15 26 -23 26 -8 0 6 -4 9 -9 6 -5 -4 -12 -1 -14 4 -3
6 -4 5 -3 -2z"/>
<path d="M4080 336 c0 -2 7 -7 16 -10 8 -3 12 -2 9 4 -6 10 -25 14 -25 6z"/>
<path d="M4377 303 c-4 -3 -7 -11 -7 -17 0 -6 5 -5 12 2 6 6 9 14 7 17 -3 3
-9 2 -12 -2z"/>
<path d="M4423 289 c1 -20 18 -31 33 -21 12 9 16 32 7 33 -5 0 -16 2 -25 4
-11 2 -16 -3 -15 -16z"/>
<path d="M4325 280 c3 -5 8 -10 11 -10 2 0 4 5 4 10 0 6 -5 10 -11 10 -5 0 -7
-4 -4 -10z"/>
<path d="M4354 268 c3 -15 26 -23 26 -8 0 6 -4 9 -9 6 -5 -4 -12 -1 -14 4 -3
6 -4 5 -3 -2z"/>
<path d="M5630 276 c0 -2 8 -10 18 -17 15 -13 16 -12 3 4 -13 16 -21 21 -21
13z"/>
<path d="M4320 256 c0 -2 7 -7 16 -10 8 -3 12 -2 9 4 -6 10 -25 14 -25 6z"/>
</g>
</svg>
